# xmcd
#
# Track frame offsets:
#	151
#	15802
#	31033
#	47612
#	67451
#	84970
#	103121
#	118930
#	133897
#	152438
#	169199
#	189152
#	208589
#	226576
#	241083
#	258702
#	275205
#	292624
#	309471
#
# Disc length: 4375 seconds
#
# Revision: 1
# Processed by: cddbd v1.5.1PL0 Copyright (c) Steve Scherf et al.
# Submitted via: audiograbber 1.80
#
DISCID=fa111513
DTITLE=Various Artist - Country Wedding Songs - Volume 1
DYEAR=1900
DGENRE=Country
TTITLE0=Alabama - Forever's As Far as I'll Go
TTITLE1=Alabama - Feels So Right
TTITLE2=Alabama - The Maker Said Take Her
TTITLE3=John Michael Montgomery - I Swear
TTITLE4=John Michael Montgomery - I Can Love You Like That
TTITLE5=John Michael Montgomery - I Love The Way You Love Me
TTITLE6=George Strait - I Cross My Heart
TTITLE7=George Strait - Carried Away
TTITLE8=Tracy Byrd - Keeper Of The Stars
TTITLE9=Shenandoah - I Want To Be Loved Like That
TTITLE10=Billy Dean - I Wouldn't Be A Man
TTITLE11=Vince Gill - Whenever You Come Around
TTITLE12=Vince Gill - Look At Us
TTITLE13=Colin Raye - That wa A River
TTITLE14=John Berry - Your Love Amazes Me
TTITLE15=Paul Brant - I Do
TTITLE16=LeAnn Rimes - Unchained Melody
TTITLE17=Forester Sisters - Their Hearts Are Dancing
TTITLE18=Brooks and Dunn - I Am That Man
EXTD=
EXTT0=
EXTT1=
EXTT2=
EXTT3=
EXTT4=
EXTT5=
EXTT6=
EXTT7=
EXTT8=
EXTT9=
EXTT10=
EXTT11=
EXTT12=
EXTT13=
EXTT14=
EXTT15=
EXTT16=
EXTT17=
EXTT18=
PLAYORDER=
